<svg width="23" height="22" viewBox="0 0 23 22" fill="none" xmlns="http://www.w3.org/2000/svg">
<path d="M3.52148 0.451172H16.8027C18.8926 0.451172 19.9863 1.55469 19.9863 3.66406V13.8984H10.2891C8.87305 13.8984 8.17969 14.6504 8.17969 16.0664V18.8789C8.17969 20.1777 7.4375 20.9102 6.38281 20.9102C5.26953 20.9102 4.49805 20.1582 4.49805 18.8105V2.38477C4.49805 1.39844 4.24414 0.841797 3.52148 0.451172ZM0.914062 5.31445V3.03906C0.914062 2.42383 1.40234 1.98438 1.99805 1.98438C2.58398 1.98438 3.0625 2.42383 3.0625 3.03906V6.42773H2.05664C1.37305 6.42773 0.914062 5.98828 0.914062 5.31445ZM8.38477 5.63672C8.38477 5.98828 8.64844 6.27148 9.01953 6.27148H15.6504C16.002 6.27148 16.2754 5.98828 16.2754 5.63672C16.2754 5.29492 16.002 5.03125 15.6504 5.03125H9.01953C8.64844 5.03125 8.38477 5.29492 8.38477 5.63672ZM8.38477 8.98633C8.38477 9.32812 8.64844 9.60156 9.01953 9.60156H12.5352C12.8965 9.60156 13.1602 9.32812 13.1602 8.98633C13.1602 8.63477 12.8965 8.36133 12.5352 8.36133H9.01953C8.64844 8.36133 8.38477 8.63477 8.38477 8.98633ZM8.62891 21.4473C9.41992 20.6562 9.60547 19.6797 9.60547 18.498V16.4473C9.60547 15.7734 10.0645 15.334 10.748 15.334H20.9434C21.627 15.334 22.0859 15.7734 22.0859 16.4473V18.332C22.0859 20.334 20.7969 21.4473 18.8633 21.4473H8.62891Z" fill="white"/>
</svg>
