<svg width="24" height="24" viewBox="0 0 24 24" fill="none" xmlns="http://www.w3.org/2000/svg">
<path d="M2.08789 13.6875C1.65951 13.6875 1.29036 13.5371 0.980469 13.2363C0.679688 12.9355 0.529297 12.5664 0.529297 12.1289C0.529297 11.7005 0.679688 11.3314 0.980469 11.0215C1.29036 10.7116 1.65951 10.5566 2.08789 10.5566H21.8848C22.3132 10.5566 22.6823 10.7116 22.9922 11.0215C23.3021 11.3314 23.457 11.7005 23.457 12.1289C23.457 12.5664 23.3021 12.9355 22.9922 13.2363C22.6823 13.5371 22.3132 13.6875 21.8848 13.6875H2.08789ZM11.9863 23.5996C11.5579 23.5996 11.1888 23.4447 10.8789 23.1348C10.5781 22.8249 10.4277 22.4557 10.4277 22.0273V2.23047C10.4277 1.80208 10.5781 1.4375 10.8789 1.13672C11.1888 0.826823 11.5579 0.671875 11.9863 0.671875C12.4238 0.671875 12.793 0.826823 13.0938 1.13672C13.4036 1.4375 13.5586 1.80208 13.5586 2.23047V22.0273C13.5586 22.4557 13.4036 22.8249 13.0938 23.1348C12.793 23.4447 12.4238 23.5996 11.9863 23.5996Z" fill="white" fill-opacity="0.2"/>
</svg>
