<svg width="21" height="22" viewBox="0 0 21 22" fill="none" xmlns="http://www.w3.org/2000/svg">
<path d="M9.61133 21.3398C9.01562 21.3398 8.57617 20.9883 8.44922 20.4121L7.96094 18.3516C7.62891 18.2344 7.31641 18.1074 7.02344 17.9707L5.22656 19.084C4.73828 19.3867 4.16211 19.3379 3.76172 18.9375L2.51172 17.6777C2.10156 17.2773 2.04297 16.6816 2.36523 16.1934L3.46875 14.4062C3.33203 14.1133 3.20508 13.8008 3.10742 13.498L1.02734 13.0098C0.451172 12.8828 0.109375 12.4434 0.109375 11.8574V10.0996C0.109375 9.52344 0.451172 9.07422 1.02734 8.94727L3.08789 8.44922C3.20508 8.10742 3.33203 7.80469 3.44922 7.54102L2.3457 5.71484C2.0332 5.2168 2.07227 4.66016 2.49219 4.25L3.76172 2.99023C4.18164 2.60938 4.68945 2.55078 5.1875 2.82422L7.01367 3.94727C7.30664 3.80078 7.62891 3.67383 7.96094 3.56641L8.44922 1.48633C8.57617 0.910156 9.01562 0.558594 9.61133 0.558594H11.3984C11.9844 0.558594 12.4238 0.910156 12.5508 1.48633L13.0488 3.57617C13.3809 3.69336 13.6934 3.82031 13.9766 3.95703L15.8125 2.82422C16.3105 2.55078 16.8281 2.61914 17.2383 2.99023L18.5078 4.25C18.9277 4.66016 18.9668 5.2168 18.6543 5.71484L17.5508 7.54102C17.668 7.80469 17.8047 8.10742 17.9121 8.44922L19.9727 8.94727C20.5488 9.07422 20.8906 9.52344 20.8906 10.0996V11.8574C20.8906 12.4434 20.5488 12.8828 19.9727 13.0098L17.8926 13.498C17.7949 13.8008 17.668 14.1133 17.5312 14.4062L18.6348 16.1934C18.957 16.6816 18.8984 17.2773 18.498 17.6777L17.2383 18.9375C16.8379 19.3379 16.2617 19.3867 15.7832 19.084L13.9766 17.9707C13.6836 18.1074 13.3711 18.2344 13.0391 18.3516L12.5508 20.4121C12.4238 20.9883 11.9844 21.3398 11.3984 21.3398H9.61133ZM10.5 14.3672C12.3848 14.3672 13.918 12.8242 13.918 10.9395C13.918 9.07422 12.3848 7.54102 10.5 7.54102C8.625 7.54102 7.0918 9.07422 7.0918 10.9395C7.0918 12.8242 8.625 14.3672 10.5 14.3672Z" fill="white"/>
</svg>
